/* XPM */
static char *result[] = {
/* columns rows colors chars-per-pixel */
"128 128 4 1 ",
"  c #489C4C",
". c #79AD41",
"X c #81BA44",
"o c None",
/* pixels */
"oooooooooooooooooooooooooooooooooooooooooooooooooooooooooooooooooooooooooooooooooooooooooooooooooooooooooooooooooooooooooooooooo",
"oooooooooooooooooooooooooooooooooooooooooooooooooooooooooooooooooooooooooooooooooooooooooooooooooooooooooooooooooooooooooooooooo",
"oooooooooooooooooooooooooooooooooooooooooooooooooooooooooooooooooooooooooooooooooooooooooooooooooooooooooooooooooooooooooooooooo",
"oooooooooooooooooooooooooooooooooooooooooooooooooooooooooooooooooooooooooooooooooooooooooooooooooooooooooooooooooooooooooooooooo",
"oooooooooooooooooooooooooooooooooooooooooooooooooooooooooooooooooooooooooooooooooooooooooooooooooooooooooooooooooooooooooooooooo",
"oooooooooooooooooooooooooooooooooooooooooooooooooooooooooooooooooooooooooooooooooooooooooooooooooooooooooooooooooooooooooooooooo",
"oooooooooooooooooooooooooooooooooooooooooooooooooooooooooooooooooooooooooooooooooooooooooooooooooooooooooooooooooooooooooooooooo",
"oooooooooooooooooooooooooooooooooooooooooooooooooooooooooooooooooooooooooooooooooooooooooooooooooooooooooooooooooooooooooooooooo",
"oooooooooooooooooooooooooooooooooooooooooooooooooooooooooooooooooooooooooooooooooooooooooooooooooooooooooooooooooooooooooooooooo",
"oooooooooooooooooooooooooooooooooooooooooooooooooooooooooooooooooooooooooooooooooooooooooooooooooooooooooooooooooooooooooooooooo",
"oooooooooooooooooooooooooooooooooooooooooooooooooooooooooooooooooooooooooooooooooooooooooooooooooooooooooooooooooooooooooooooooo",
"oooooooooooooooooooooooooooooooooooooooooooooooooooooooooooooooooooooooooooooooooooooooooooooooooooooooooooooooooooooooooooooooo",
"oooooooooooooooooooooooooooooooooooooooooooooooooooooooooooooooooooooooooooooooooooooooooooooooooooooooooooooooooooooooooooooooo",
"oooooooooooooooooooooooooooooooooooooooooooooooooooooooooooooooooooooooooooooooooooooooooooooooooooooooooooooooooooooooooooooooo",
"oooooooooooooooooooooooooooooooooooooooooooooooooooooooooooooooooooooooooooooooooooooooooooooooooooooooooooooooooooooooooooooooo",
"oooooooooooooooooooooooooooooooooooooooooooooooooooooooooooooooooooooooooooooooooooooooooooooooooooooooooooooooooooooooooooooooo",
"oooooooooooooooooooooooooooooooooooooooooooooooooooooooooooooooooooooooooooooooooooooooooooooooooooooooooooooooooooooooooooooooo",
"oooooooooooooooooooooooooooooooooooooooooooooooooooooooooooooooooooooooooooooooooooooooooooooooooooooooooooooooooooooooooooooooo",
"oooooooooooooooooooooooooooooooooooooooooooooooooooooooooooooooooooooooooooooooooooooooooooooooooooooooooooooooooooooooooooooooo",
"oooooooooooooooooooooooooooooooooooooooooooooooooooooooooooooooooooooooooooooooooooooooooooooooooooooooooooooooooooooooooooooooo",
"oooooooooooooooooooooooooooooooooooooooooooooooooooooooooooooooooooooooooooooooooooooooooooooooooooooooooooooooooooooooooooooooo",
"oooooooooooooooooooooooooooooooooooooooooooooooooooooooooooooooooooooooooooooooooooooooooooooooooooooooooooooooooooooooooooooooo",
"oooooooooooooooooooooooooooooooooooooooooooooooooooooooooooooooooooooooooooooooooooooooooooooooooooooooooooooooooooooooooooooooo",
"oooooooooooooooooooooooooooooooooooooooooooooooooooooooooooooooooooooooooooooooooooooooooooooooooooooooooooooooooooooooooooooooo",
"oooooooooooooooooooooooo                                                                                oooooooooooooooooooooooo",
"oooooooooooooooooooooooo                                                                                oooooooooooooooooooooooo",
"oooooooooooooooooooooooo  XXXX  XX  XX  XX    ..  XX  XX....    XXXX    ........XX..  XXXX....  XXXXXX  oooooooooooooooooooooooo",
"oooooooooooooooooooooooo  XXXX  XX  XX  XX    ..  XX  XX....    XXXX    ........XX..  XXXX....  XXXXXX  oooooooooooooooooooooooo",
"oooooooooooooooooooooooo      XX....XX....................................XXXX............XXXX....      oooooooooooooooooooooooo",
"oooooooooooooooooooooooo      XX....XX....................................XXXX............XXXX....      oooooooooooooooooooooooo",
"oooooooooooooooooooooooo  XX    XX  ....XXXXXXXX  XXXXXXXXXXXXXXXXXXXXXXXXXXXXXXXXXXXXXXXXXXXXXX    ..  oooooooooooooooooooooooo",
"oooooooooooooooooooooooo  XX    XX  ....XXXXXXXX  XXXXXXXXXXXXXXXXXXXXXXXXXXXXXXXXXXXXXXXXXXXXXX    ..  oooooooooooooooooooooooo",
"oooooooooooooooooooooooo    XX..XXXXXX    XXXX    XX    XXXX      XXXXXX  XXXX..XXXX  XXXXXX  XXXX  ..  oooooooooooooooooooooooo",
"oooooooooooooooooooooooo    XX..XXXXXX    XXXX    XX    XXXX      XXXXXX  XXXX..XXXX  XXXXXX  XXXX  ..  oooooooooooooooooooooooo",
"oooooooooooooooooooooooo  ..XXXX..  XXXXXXXXXXXX  XX..  XXXXXXXX  XX      XXXX....  XX..XXXX    XXXX    oooooooooooooooooooooooo",
"oooooooooooooooooooooooo  ..XXXX..  XXXXXXXXXXXX  XX..  XXXXXXXX  XX      XXXX....  XX..XXXX    XXXX    oooooooooooooooooooooooo",
"oooooooooooooooooooooooo    ....  XXXX  XX      XXXX....    XXXX..XXXXXX        XX  XXXX      XXXXXXXX  oooooooooooooooooooooooo",
"oooooooooooooooooooooooo    ....  XXXX  XX      XXXX....    XXXX..XXXXXX        XX  XXXX      XXXXXXXX  oooooooooooooooooooooooo",
"oooooooooooooooooooooooo  ....  XXXXXX  XX      XXXX....    XXXX..XXXXXX        XX  XXXX      XXXXXX..  oooooooooooooooooooooooo",
"oooooooooooooooooooooooo  ....  XXXXXX  XX      XXXX....    XXXX..XXXXXX        XX  XXXX      XXXXXX..  oooooooooooooooooooooooo",
"oooooooooooooooooooooooo      ..XXXX..    XXXX  XX  XXXX        XX      XXXXXX  XX    XXXXXX      XX    oooooooooooooooooooooooo",
"oooooooooooooooooooooooo      ..XXXX..    XXXX  XX  XXXX        XX      XXXXXX  XX    XXXXXX      XX    oooooooooooooooooooooooo",
"oooooooooooooooooooooooo  ..  ..XX    ....XXXX..XX    XXXXXXXXXXXXXX    XXXXXXXXXXXX  XX......    XX..  oooooooooooooooooooooooo",
"oooooooooooooooooooooooo  ..  ..XX    ....XXXX..XX    XXXXXXXXXXXXXX    XXXXXXXXXXXX  XX......    XX..  oooooooooooooooooooooooo",
"oooooooooooooooooooooooo    XXXXXXXX  XXXXXXXX....XXXXXXXXXX    ..XXXXXX..        XXXX..XXXX..  XXXX    oooooooooooooooooooooooo",
"oooooooooooooooooooooooo    XXXXXXXX  XXXXXXXX....XXXXXXXXXX    ..XXXXXX..        XXXX..XXXX..  XXXX    oooooooooooooooooooooooo",
"oooooooooooooooooooooooo    XXXX  ..    XXXXXXXXXX    XXXXXXXXXX  XXXXXX......XX  XXXXXXXXXX..  XX..    oooooooooooooooooooooooo",
"oooooooooooooooooooooooo    XXXX  ..    XXXXXXXXXX    XXXXXXXXXX  XXXXXX......XX  XXXXXXXXXX..  XX..    oooooooooooooooooooooooo",
"oooooooooooooooooooooooo          XX..  XXXXXX  XXXX        XXXXXXXXXXXXXX....XX..XX    XXXX..XXXX..    oooooooooooooooooooooooo",
"oooooooooooooooooooooooo          XX..  XXXXXX  XXXX        XXXXXXXXXXXXXX....XX..XX    XXXX..XXXX..    oooooooooooooooooooooooo",
"oooooooooooooooooooooooo  ..XXXX  XXXX..  XXXXXXXX......    XXXX  XX      XXXXXX  XX..  XXXX    XXXX    oooooooooooooooooooooooo",
"oooooooooooooooooooooooo  ..XXXX  XXXX..  XXXXXXXX......    XXXX  XX      XXXXXX  XX..  XXXX    XXXX    oooooooooooooooooooooooo",
"oooooooooooooooooooooooo  ..XXXX  XXXX..  XXXXXXXX......    XXXX  XX      XXXXXX  XX..  XXXX    XXXX    oooooooooooooooooooooooo",
"oooooooooooooooooooooooo  ..XXXX  XXXX..  XXXXXXXX......    XXXX  XX      XXXXXX  XX..  XXXX    XXXX    oooooooooooooooooooooooo",
"oooooooooooooooooooooooo  ..    XXXX..    XXXXXX  XXXXXXXXXXXXXX    ....  XXXX..XXXX..  XXXXXX  XXXX    oooooooooooooooooooooooo",
"oooooooooooooooooooooooo  ..    XXXX..    XXXXXX  XXXXXXXXXXXXXX    ....  XXXX..XXXX..  XXXXXX  XXXX    oooooooooooooooooooooooo",
"oooooooooooooooooooooooo  ..XXXXXXXX....  XXXXXXXXXX    XXXXXXXXXXXXXXXXXXXXXXXXXXXXXXXXXXXX....XX....  oooooooooooooooooooooooo",
"oooooooooooooooooooooooo  ..XXXXXXXX....  XXXXXXXXXX    XXXXXXXXXXXXXXXXXXXXXXXXXXXXXXXXXXXX....XX....  oooooooooooooooooooooooo",
"oooooooooooooooooooooooo  ..XXXXXX    XX..XXXX    XX..  XXXXXXXX..  XXXX..      XX    XXXXXXXXXX..  ..  oooooooooooooooooooooooo",
"oooooooooooooooooooooooo  ..XXXXXX    XX..XXXX    XX..  XXXXXXXX..  XXXX..      XX    XXXXXXXXXX..  ..  oooooooooooooooooooooooo",
"oooooooooooooooooooooooo  XX      ..  XXXXXXXX....XX    XXXXXXXX    XXXX......  XX..  XX    XXXX......  oooooooooooooooooooooooo",
"oooooooooooooooooooooooo  XX      ..  XXXXXXXX....XX    XXXXXXXX    XXXX......  XX..  XX    XXXX......  oooooooooooooooooooooooo",
"oooooooooooooooooooooooo    ....  XXXX..  XXXXXX..XX..  XXXX......  XXXXXXXXXXXX    XX      XX..XX..    oooooooooooooooooooooooo",
"oooooooooooooooooooooooo    ....  XXXX..  XXXXXX..XX..  XXXX......  XXXXXXXXXXXX    XX      XX..XX..    oooooooooooooooooooooooo",
"oooooooooooooooooooooooo    ....  XXXX..  XXXXXX..XX..  XXXX......  XXXXXXXXXXXX    XX      XX..XX..    oooooooooooooooooooooooo",
"oooooooooooooooooooooooo    ....  XXXX..  XXXXXX..XX..  XXXX......  XXXXXXXXXXXX    XX      XX..XX..    oooooooooooooooooooooooo",
"oooooooooooooooooooooooo    ....  XXXX..  XXXXXX..XX..  XXXX......  XXXXXXXXXXXX    XX      XX..XX..    oooooooooooooooooooooooo",
"oooooooooooooooooooooooo    ....  XXXX..  XXXXXX..XX..  XXXX......  XXXXXXXXXXXX    XX      XX..XX..    oooooooooooooooooooooooo",
"oooooooooooooooooooooooo  ......  XXXX..  XXXXXX..XX..  XXXX......  XXXXXXXXXXXX    XX      XX..XX..    oooooooooooooooooooooooo",
"oooooooooooooooooooooooo  ......  XXXX..  XXXXXX..XX..  XXXX......  XXXXXXXXXXXX    XX      XX..XX..    oooooooooooooooooooooooo",
"oooooooooooooooooooooooo  ..XXXXXXXXXX..      XXXXXXXXXX    XXXX..XXXXXX      XXXX  XX..    XX  XX....  oooooooooooooooooooooooo",
"oooooooooooooooooooooooo  ..XXXXXXXXXX..      XXXXXXXXXX    XXXX..XXXXXX      XXXX  XX..    XX  XX....  oooooooooooooooooooooooo",
"oooooooooooooooooooooooo  ..      XXXXXXXXXXXXXXXXXXXX  XXXXXXXXXXXXXXXXXX    XX  XXXX......XXXXXX..    oooooooooooooooooooooooo",
"oooooooooooooooooooooooo  ..      XXXXXXXXXXXXXXXXXXXX  XXXXXXXXXXXXXXXXXX    XX  XXXX......XXXXXX..    oooooooooooooooooooooooo",
"oooooooooooooooooooooooo    ....  XX    XXXXXX    XX    XXXXXXXX  XXXXXX..XXXXXX    XXXX      XXXXXX    oooooooooooooooooooooooo",
"oooooooooooooooooooooooo    ....  XX    XXXXXX    XX    XXXXXXXX  XXXXXX..XXXXXX    XXXX      XXXXXX    oooooooooooooooooooooooo",
"oooooooooooooooooooooooo    XXXXXXXX..  XXXXXX..  ..XX  XXXXXXXX    XXXXXX    XXXXXXXXXXXXXX  XX    ..  oooooooooooooooooooooooo",
"oooooooooooooooooooooooo    XXXXXXXX..  XXXXXX..  ..XX  XXXXXXXX    XXXXXX    XXXXXXXXXXXXXX  XX    ..  oooooooooooooooooooooooo",
"oooooooooooooooooooooooo    XXXX..    XX........XXXXXXXXXXXX....XXXXXXXX      XX    XX  ....XXXXXX      oooooooooooooooooooooooo",
"oooooooooooooooooooooooo    XXXX..    XX........XXXXXXXXXXXX....XXXXXXXX      XX    XX  ....XXXXXX      oooooooooooooooooooooooo",
"oooooooooooooooooooooooo    XXXXXX..  XXXXXXXX..XXXXXXXX................XX    XXXX      ......  XXXX    oooooooooooooooooooooooo",
"oooooooooooooooooooooooo    XXXXXX..  XXXXXXXX..XXXXXXXX................XX    XXXX      ......  XXXX    oooooooooooooooooooooooo",
"oooooooooooooooooooooooo  XXXXXXXX..  XXXXXXXX..XXXXXXXX................XX    XXXX      ......  XXXX    oooooooooooooooooooooooo",
"oooooooooooooooooooooooo  XXXXXXXX..  XXXXXXXX..XXXXXXXX................XX    XXXX      ......  XXXX    oooooooooooooooooooooooo",
"oooooooooooooooooooooooo  ..XXXXXX..  XX      XX  ..XX      XXXX  ......      XXXXXXXX  XXXX..XXXXXX    oooooooooooooooooooooooo",
"oooooooooooooooooooooooo  ..XXXXXX..  XX      XX  ..XX      XXXX  ......      XXXXXXXX  XXXX..XXXXXX    oooooooooooooooooooooooo",
"oooooooooooooooooooooooo  ..  XX  XXXX  ..    XX  ..XXXX    XXXX  ........    XXXX    XXXXXXXX..XX      oooooooooooooooooooooooo",
"oooooooooooooooooooooooo  ..  XX  XXXX  ..    XX  ..XXXX    XXXX  ........    XXXX    XXXXXXXX..XX      oooooooooooooooooooooooo",
"oooooooooooooooooooooooo  ..      XXXX    XXXX..XXXX..  XXXXXXXXXX  ......XXXX  XXXX  XX    XXXX        oooooooooooooooooooooooo",
"oooooooooooooooooooooooo  ..      XXXX    XXXX..XXXX..  XXXXXXXXXX  ......XXXX  XXXX  XX    XXXX        oooooooooooooooooooooooo",
"oooooooooooooooooooooooo    XXXX  XXXXXXXXXXXXXXXX  XX      XXXXXXXX    XXXXXX    XXXXXXXXXX..XXXX..    oooooooooooooooooooooooo",
"oooooooooooooooooooooooo    XXXX  XXXXXXXXXXXXXXXX  XX      XXXXXXXX    XXXXXX    XXXXXXXXXX..XXXX..    oooooooooooooooooooooooo",
"oooooooooooooooooooooooo        XXXX  XX  XXXX  XXXX....XXXX....XX      XX....XXXX..XX......    XXXX    oooooooooooooooooooooooo",
"oooooooooooooooooooooooo        XXXX  XX  XXXX  XXXX....XXXX....XX      XX....XXXX..XX......    XXXX    oooooooooooooooooooooooo",
"oooooooooooooooooooooooo        XXXX  XX  XXXX  XXXX....XXXX....XX      XX....XXXX..XX......    XXXX    oooooooooooooooooooooooo",
"oooooooooooooooooooooooo        XXXX  XX  XXXX  XXXX....XXXX....XX      XX....XXXX..XX......    XXXX    oooooooooooooooooooooooo",
"oooooooooooooooooooooooo  XX    XX  XXXXXX....    XXXXXX        XXXX    XX....XX..    ..XXXXXX  ..XX..  oooooooooooooooooooooooo",
"oooooooooooooooooooooooo  XX    XX  XXXXXX....    XXXXXX        XXXX    XX....XX..    ..XXXXXX  ..XX..  oooooooooooooooooooooooo",
"oooooooooooooooooooooooo  ..  XX..    XX      ....XXXX......    ....XXXXXX    ......  XXXXXXXX..  ....  oooooooooooooooooooooooo",
"oooooooooooooooooooooooo  ..  XX..    XX      ....XXXX......    ....XXXXXX    ......  XXXXXXXX..  ....  oooooooooooooooooooooooo",
"oooooooooooooooooooooooo  ............XXXX    XXXXXX  XX................XXXXXXXXXX....XX    XXXX  ..    oooooooooooooooooooooooo",
"oooooooooooooooooooooooo  ............XXXX    XXXXXX  XX................XXXXXXXXXX....XX    XXXX  ..    oooooooooooooooooooooooo",
"oooooooooooooooooooooooo                                                                                oooooooooooooooooooooooo",
"oooooooooooooooooooooooo                                                                                oooooooooooooooooooooooo",
"oooooooooooooooooooooooooooooooooooooooooooooooooooooooooooooooooooooooooooooooooooooooooooooooooooooooooooooooooooooooooooooooo",
"oooooooooooooooooooooooooooooooooooooooooooooooooooooooooooooooooooooooooooooooooooooooooooooooooooooooooooooooooooooooooooooooo",
"oooooooooooooooooooooooooooooooooooooooooooooooooooooooooooooooooooooooooooooooooooooooooooooooooooooooooooooooooooooooooooooooo",
"oooooooooooooooooooooooooooooooooooooooooooooooooooooooooooooooooooooooooooooooooooooooooooooooooooooooooooooooooooooooooooooooo",
"oooooooooooooooooooooooooooooooooooooooooooooooooooooooooooooooooooooooooooooooooooooooooooooooooooooooooooooooooooooooooooooooo",
"oooooooooooooooooooooooooooooooooooooooooooooooooooooooooooooooooooooooooooooooooooooooooooooooooooooooooooooooooooooooooooooooo",
"oooooooooooooooooooooooooooooooooooooooooooooooooooooooooooooooooooooooooooooooooooooooooooooooooooooooooooooooooooooooooooooooo",
"oooooooooooooooooooooooooooooooooooooooooooooooooooooooooooooooooooooooooooooooooooooooooooooooooooooooooooooooooooooooooooooooo",
"oooooooooooooooooooooooooooooooooooooooooooooooooooooooooooooooooooooooooooooooooooooooooooooooooooooooooooooooooooooooooooooooo",
"oooooooooooooooooooooooooooooooooooooooooooooooooooooooooooooooooooooooooooooooooooooooooooooooooooooooooooooooooooooooooooooooo",
"oooooooooooooooooooooooooooooooooooooooooooooooooooooooooooooooooooooooooooooooooooooooooooooooooooooooooooooooooooooooooooooooo",
"oooooooooooooooooooooooooooooooooooooooooooooooooooooooooooooooooooooooooooooooooooooooooooooooooooooooooooooooooooooooooooooooo",
"oooooooooooooooooooooooooooooooooooooooooooooooooooooooooooooooooooooooooooooooooooooooooooooooooooooooooooooooooooooooooooooooo",
"oooooooooooooooooooooooooooooooooooooooooooooooooooooooooooooooooooooooooooooooooooooooooooooooooooooooooooooooooooooooooooooooo",
"oooooooooooooooooooooooooooooooooooooooooooooooooooooooooooooooooooooooooooooooooooooooooooooooooooooooooooooooooooooooooooooooo",
"oooooooooooooooooooooooooooooooooooooooooooooooooooooooooooooooooooooooooooooooooooooooooooooooooooooooooooooooooooooooooooooooo",
"oooooooooooooooooooooooooooooooooooooooooooooooooooooooooooooooooooooooooooooooooooooooooooooooooooooooooooooooooooooooooooooooo",
"oooooooooooooooooooooooooooooooooooooooooooooooooooooooooooooooooooooooooooooooooooooooooooooooooooooooooooooooooooooooooooooooo",
"oooooooooooooooooooooooooooooooooooooooooooooooooooooooooooooooooooooooooooooooooooooooooooooooooooooooooooooooooooooooooooooooo",
"oooooooooooooooooooooooooooooooooooooooooooooooooooooooooooooooooooooooooooooooooooooooooooooooooooooooooooooooooooooooooooooooo",
"oooooooooooooooooooooooooooooooooooooooooooooooooooooooooooooooooooooooooooooooooooooooooooooooooooooooooooooooooooooooooooooooo",
"oooooooooooooooooooooooooooooooooooooooooooooooooooooooooooooooooooooooooooooooooooooooooooooooooooooooooooooooooooooooooooooooo",
"oooooooooooooooooooooooooooooooooooooooooooooooooooooooooooooooooooooooooooooooooooooooooooooooooooooooooooooooooooooooooooooooo",
"oooooooooooooooooooooooooooooooooooooooooooooooooooooooooooooooooooooooooooooooooooooooooooooooooooooooooooooooooooooooooooooooo"
};
