/* XPM */
static char *result[] = {
/* columns rows colors chars-per-pixel */
"128 128 11 1 ",
"  c black",
". c #74797D",
"X c #489C4C",
"o c #79AD41",
"O c #81BA44",
"+ c #7C8186",
"@ c #888D93",
"# c #A0A6AD",
"$ c #A8AEB6",
"% c #C5CDD8",
"& c None",
/* pixels */
"&&&&&&&&&&&&&&&&&&&&&&&&&&&&&&&&&&&&&&&&&&&&&&&&&&&&&&&&&&&&&&&&&&&&&&&&&&&&&&&&&&&&&&&&&&&&&&&&&&&&&&&&&&&&&&&&&&&&&&&&&&&&&&&&",
"&&&&&&&&&&&&&&&&&&&&&&&&&&&&&&&&&&&&&&&&&&&&&&&&&&&&&&&&&&&&&&&&&&&&&&&&&&&&&&&&&&&&&&&&&&&&&&&&&&&&&&&&&&&&&&&&&&&&&&&&&&&&&&&&",
"&&&&&&&&&&&&&&&&&&&&&&&&&&&&&&&&&&&&&&&&&&&&&&&&&&&&&&&&&&&&&&&&&&&&&&&&&&&&&&&&&&&&&&&&&&&&&&&&&&&&&&&&&&&&&&&&&&&&&&&&&&&&&&&&",
"&&&&&&&&&&&&&&&&&&&&&&&&&&&&&&&&&&&&&&&&&&&&&&&&&&&&&&&&&&&&&&&&&&&&&&&&&&&&&&&&&&&&&&&&&&&&&&&&&&&&&&&&&&&&&&&&&&&&&&&&&&&&&&&&",
"&&&&&&&&&&&&&&&&&&&&&&&&&&&&&&&&&&&&&&&&&&&&&&&&&&&&&&&&&&&&&&&&&&&&&&&&&&&&&&&&&&&&&&&&&&&&&&&&&&&&&&&&&&&&&&&&&&&&&&&&&&&&&&&&",
"&&&&&&&&&&&&&&&&&&&&&&&&&&&&&&&&&&&&&&&&&&&&&&&&&&&&&&&&&&&&&&&&&&&&&&&&&&&&&&&&&&&&&&&&&&&&&&&&&&&&&&&&&&&&&&&&&&&&&&&&&&&&&&&&",
"&&&&&&&&&&&&&&&&&&&&&&&&&&&&&&&&&&&&&&&&&&&&&&&&&&&&&&&&&&&&&&&&&&&&&&&&&&&&&&&&&&&&&&&&&&&&&&&&&&&&&&&&&&&&&&&&&&&&&&&&&&&&&&&&",
"&&&&&&&&&&&&&&&&&&&&&&&&&&&&&&&&&&&&&&&&&&&&&&&&&&&&&&&&&&&&&&&&&&&&&&&&&&&&&&&&&&&&&&&&&&&&&&&&&&&&&&&&&&&&&&&&&&&&&&&&&&&&&&&&",
"&&&&&&&&&&&&&&&&&&&&&&&&&&&&&&&&&&&&&&&&&&&&&&&&&&&&&&&&&&&&&&&&&&&&&&&&&&&&&&&&&&&&&&&&&&&&&&&&&&&&&&&&&&&&&&&&&&&&&&&&&&&&&&&&",
"&&&&&&&&&&&&&&&&&&&&&&&&&&&&&&&&&&&&&&&&&&&&&&&&&&&&&&&&&&&&&&&&&&&&&&&&&&&&&&&&&&&&&&&&&&&&&&&&&&&&&&&&&&&&&&&&&&&&&&&&&&&&&&&&",
"&&&&&&&&&&&&&&&&&&&&&&&&&&&&&&&&&&&&&&&&&&&&&&&&&&&&&&&&&&&&&&&&&&&&&&&&&&&&&&&&&&&&&&&&&&&&&&&&&&&&&&&&&&&&&&&&&&&&&&&&&&&&&&&&",
"&&&&&&&&&&&&&&&&&&&&&&&&&&&&&&&&&&&&&&&&&&&&&&&&&&&&&&&&&&&&&&&&&&&&&&&&&&&&&&&&&&&&&&&&&&&&&&&&&&&&&&&&&&&&&&&&&&&&&&&&&&&&&&&&",
"&&&&&&&&&&&&&&&&&&&&&&&&&&&&&&&&&&&&&&&&&&&&&&&&&&&&&&&&&&&&&&&&&&&&&&&&&&&&&&&&&&&&&&&&&&&&&&&&&&&&&&&&&&&&&&&&&&&&&&&&&&&&&&&&",
"&&&&&&&&&&&&&&&&&&&&&&&&&&&&&&&&&&&&&&&&&&&&&&&&&&&&&&&&&&&&&&&&&&&&&&&&&&&&&&&&&&&&&&&&&&&&&&&&&&&&&&&&&&&&&&&&&&&&&&&&&&&&&&&&",
"&&&&&&&&&&&&&&&&&&&&&&&&&&&&&&&&&&&&&&&&&&&&&&&&&&&&&&&&&&&&&&&&&&&&&&&&&&&&&&&&&&&&&&&&&&&&&&&&&&&&&&&&&&&&&&&&&&&&&&&&&&&&&&&&",
"&&&&&&&&&&&&&&&&&&&&&&&&&&&&&&&&&&&&&&&&&&&&&&&&&&&&&&&&&&&&&&&&&&&&&&&&&&&&&&&&&&&&&&&&&&&&&&&&&&&&&&&&&&&&&&&&&&&&&&&&&&&&&&&&",
"&&&&&&&&&&&&&&&&&&&&&&&&&&&&&&&&&&&&&&&&&&&&&&&&&&&&&&&&&&&&&&&&&&&&&&&&&&&&&&&&&&&&&&&&&&&&&&&&&&&&&&&&&&&&&&&&&&&&&&&&&&&&&&&&",
"&&&&&&&&&&&&&&&&&&&&&&&&&&&&&&&&&&&&&&&&&&&&&&&&&&&&&&&&&&&&&&&&&&&&&&&&&&&&&&&&&&&&&&&&&&&&&&&&&&&&&&&&&&&&&&&&&&&&&&&&&&&&&&&&",
"&&&&&&&&&&&&&&&&&&&&&&&&&&&&&&&&&&&&&&&&&&&&&&&&&&&&&&&&&&&&&&&&&&&&&&&&&&&&&&&&&&&&&&&&&&&&&&&&&&&&&&&&&&&&&&&&&&&&&&&&&&&&&&&&",
"&&&&&&&&&&&&&&&&&&&&&&&&&&&&&&&&&&&&&&&&&&&&&&&&&&&&&&&&&&&&&&&&&&&&&&&&&&&&&&&&&&&&&&&&&&&&&&&&&&&&&&&&&&&&&&&&&&&&&&&&&&&&&&&&",
"&&&&&&&&&&&&&&&&&&&&&&&&&&&&&&&&&&&&&&&&&&&&&&&&&&&&&&&&&&&&&&&&&&&&&&&&&&&&&&&&&&&&&&&&&&&&&&&&&&&&&&&&&&&&&&&&&&&&&&&&&&&&&&&&",
"&&&&&&&&&&&&&&&&&&&&&&&&&&&&&&&&&&&&&&&&&&&&&&&&&&&&&&&&&&&&&&&&&&&&&&&&&&&&&&&&&&&&&&&&&&&&&&&&&&&&&&&&&&&&&&&&&&&&&&&&&&&&&&&&",
"&&&&&&&&&&&&&&&&&&&&&&&&&&&&&&&&&&&&&&&&&&&&&&&&&&&&&&&&&&&&&&&&&&&&&&&&&&&&&&&&&&&&&&&&&&&&&&&&&&&&&&&&&&&&&&&&&&&&&&&&&&&&&&&&",
"&&&&&&&&&&&&&&&&&&&&&&&&&&&&&&&&&&&&&&&&&&&&&&&&&&&&&&&&&&&&&&&&&&&&&&&&&&&&&&&&&&&&&&&&&&&&&&&&&&&&&&&&&&&&&&&&&&&&&&&&&&&&&&&&",
"&&&&&&&&&&&&&&&&&&&&&&&&XXXXXXXXXXXXXXXXXXXXXXXXXXXXXXXXXXXXXXXXXXXXXXooXXXXXXXXXXXXXXXXXXXXXXXXXXXXXXXX&&&&&&&&&&&&&&&&&&&&&&&&",
"&&&&&&&&&&&&&&&&&&&&&&&&XXXXXXXXXXXXXXXXXXXXXXXXXXXXXXXXXXXXXXXXXXXXXXooXXXXXXXXXXXXXXXXXXXXXXXXXXXXXXXX&&&&&&&&&&&&&&&&&&&&&&&&",
"&&&&&&&&&&&&&&&&&&&&&&&&XXXXooooooooooXXXXXXXXOOOOXXXXXXXXOOXXOOooXXooXXXXXXXXXXXXXXXXXXXXXXXXXXXXXXXXXX&&&&&&&&&&&&&&&&&&&&&&&&",
"&&&&&&&&&&&&&&&&&&&&&&&&XXXXooooooooooXXXXXXXXOOOOXXXXXXXXOOXXOOooXXooXXXXXXXXXXXXXXXXXXXXXXXXXXXXXXXXXX&&&&&&&&&&&&&&&&&&&&&&&&",
"&&&&&&&&&&&&&&&&&&&&&&&&XXXXXXOOOOooOOooooXXooOOooXXooXXOOOOXXXXooOOXXOOooOOOOOOooXXooXXXXooOOXXooooXXXX&&&&&&&&&&&&&&&&&&&&&&&&",
"&&&&&&&&&&&&&&&&&&&&&&&&XXXXXXOOOOooOOooooXXooOOooXXooXXOOOOXXXXooOOXXOOooOOOOOOooXXooXXXXooOOXXooooXXXX&&&&&&&&&&&&&&&&&&&&&&&&",
"&&&&&&&&&&&&&&&&&&&&&&&&XXooooOOOOOOOOOOOOXXXXXXooXXooooooOOOOooooooOOOOooooXXXXooXXooXXOOOOXXXXooooooXX&&&&&&&&&&&&&&&&&&&&&&&&",
"&&&&&&&&&&&&&&&&&&&&&&&&XXooooOOOOOOOOOOOOXXXXXXooXXooooooOOOOooooooOOOOooooXXXXooXXooXXOOOOXXXXooooooXX&&&&&&&&&&&&&&&&&&&&&&&&",
"&&&&&&&&&&&&&&&&&&&&&&&&XXXXooooXXXXooOOOOXXoooooooo                    OOOOooooooOOooooooooooXXOOXXooXX&&&&&&&&&&&&&&&&&&&&&&&&",
"&&&&&&&&&&&&&&&&&&&&&&&&XXXXooooXXXXooOOOOXXoooooooo                    OOOOooooooOOooooooooooXXOOXXooXX&&&&&&&&&&&&&&&&&&&&&&&&",
"&&&&&&&&&&&&&&&&&&&&&&&&XXXXOOOOooXXOOooooOOOOOO                              OOOOOOXXOOOOOOOOXXOOooooXX&&&&&&&&&&&&&&&&&&&&&&&&",
"&&&&&&&&&&&&&&&&&&&&&&&&XXXXOOOOooXXOOooooOOOOOO                              OOOOOOXXOOOOOOOOXXOOooooXX&&&&&&&&&&&&&&&&&&&&&&&&",
"&&&&&&&&&&&&&&&&&&&&&&&&XXXXOOooooOOXXOOXXOOOO        $$$$$$$$$$$$$$              XXOOOOOOXXOOOOXXooooXX&&&&&&&&&&&&&&&&&&&&&&&&",
"&&&&&&&&&&&&&&&&&&&&&&&&XXXXOOooooOOXXOOXXOOOO        $$$$$$$$$$$$$$              XXOOOOOOXXOOOOXXooooXX&&&&&&&&&&&&&&&&&&&&&&&&",
"&&&&&&&&&&&&&&&&&&&&&&&&XXooOOXXOOooOOOOOO          $$$$$$$$$$$$$$$$$$$$$$            OOOOXXXXOOXXXXooXX&&&&&&&&&&&&&&&&&&&&&&&&",
"&&&&&&&&&&&&&&&&&&&&&&&&XXooOOXXOOooOOOOOO          $$$$$$$$$$$$$$$$$$$$$$            OOOOXXXXOOXXXXooXX&&&&&&&&&&&&&&&&&&&&&&&&",
"&&&&&&&&&&&&&&&&&&&&&&&&XXXXooOOXXOOOOOO          $$%%%%%%%%%%%%$$$$$$$$$$$$$$          XXXXOOOOOOooXXXX&&&&&&&&&&&&&&&&&&&&&&&&",
"&&&&&&&&&&&&&&&&&&&&&&&&XXXXooOOXXOOOOOO          $$%%%%%%%%%%%%$$$$$$$$$$$$$$          XXXXOOOOOOooXXXX&&&&&&&&&&&&&&&&&&&&&&&&",
"&&&&&&&&&&&&&&&&&&&&&&&&XXXXooooXXOOOO        $$%%%%%%%%%%%%%%%%%%$$$$$$$$$$$$$$$$        XXOOOOOOooOOXX&&&&&&&&&&&&&&&&&&&&&&&&",
"&&&&&&&&&&&&&&&&&&&&&&&&XXXXooooXXOOOO        $$%%%%%%%%%%%%%%%%%%$$$$$$$$$$$$$$$$        XXOOOOOOooOOXX&&&&&&&&&&&&&&&&&&&&&&&&",
"&&&&&&&&&&&&&&&&&&&&&&&&XXooooXXXXOOOO      %%%%%%%%%%%%%%%%%%%%%%$$$$$$$$$$$$$$$$$$        XXXXOOooOOXX&&&&&&&&&&&&&&&&&&&&&&&&",
"&&&&&&&&&&&&&&&&&&&&&&&&XXooooXXXXOOOO      %%%%%%%%%%%%%%%%%%%%%%$$$$$$$$$$$$$$$$$$        XXXXOOooOOXX&&&&&&&&&&&&&&&&&&&&&&&&",
"&&&&&&&&&&&&&&&&&&&&&&&&XXXXooXXooOO      $$%%%%%%%%%%%%%%%%%%%%%%$$$$$$$$$$$$$$$$$$$$      XXXXOOooOOXX&&&&&&&&&&&&&&&&&&&&&&&&",
"&&&&&&&&&&&&&&&&&&&&&&&&XXXXooXXooOO      $$%%%%%%%%%%%%%%%%%%%%%%$$$$$$$$$$$$$$$$$$$$      XXXXOOooOOXX&&&&&&&&&&&&&&&&&&&&&&&&",
"&&&&&&&&&&&&&&&&&&&&&&&&XXXXooOOOOOO      %%%%%%%%%%%%%%%%%%%%%%$$$$$$$$$$$$$$$$$$$$$$$$      OOOOXXXXXX&&&&&&&&&&&&&&&&&&&&&&&&",
"&&&&&&&&&&&&&&&&&&&&&&&&XXXXooOOOOOO      %%%%%%%%%%%%%%%%%%%%%%$$$$$$$$$$$$$$$$$$$$$$$$      OOOOXXXXXX&&&&&&&&&&&&&&&&&&&&&&&&",
"&&&&&&&&&&&&&&&&&&&&&&&&XXXXOOOOOO      $$%%%%%%%%%%%%%%%%%%$$$$$$$$$$$$$$$$$$$$$$####$$      OOooOOXXXX&&&&&&&&&&&&&&&&&&&&&&&&",
"&&&&&&&&&&&&&&&&&&&&&&&&XXXXOOOOOO      $$%%%%%%%%%%%%%%%%%%$$$$$$$$$$$$$$$$$$$$$$####$$      OOooOOXXXX&&&&&&&&&&&&&&&&&&&&&&&&",
"&&&&&&&&&&&&&&&&&&&&&&&&XXooOOXXXX      $$%%%%%%%%%%%%%%%%%%$$$$$$$$$$$$$$$$$$$$$$########      ooooooXX&&&&&&&&&&&&&&&&&&&&&&&&",
"&&&&&&&&&&&&&&&&&&&&&&&&XXooOOXXXX      $$%%%%%%%%%%%%%%%%%%$$$$$$$$$$$$$$$$$$$$$$########      ooooooXX&&&&&&&&&&&&&&&&&&&&&&&&",
"&&&&&&&&&&&&&&&&&&&&&&&&XXXXooOOOO    $$%%%%%%%%%%%%%%%%$$$$$$$$$$$$$$$$$$$$$$$$############    OOXXooXX&&&&&&&&&&&&&&&&&&&&&&&&",
"&&&&&&&&&&&&&&&&&&&&&&&&XXXXooOOOO    $$%%%%%%%%%%%%%%%%$$$$$$$$$$$$$$$$$$$$$$$$############    OOXXooXX&&&&&&&&&&&&&&&&&&&&&&&&",
"&&&&&&&&&&&&&&&&&&&&&&&&XXXXooOO      $$%%%%%%%%%%%%$$$$$$$$$$$$$$$$$$$$$$$$$$$$############    OOOOooXX&&&&&&&&&&&&&&&&&&&&&&&&",
"&&&&&&&&&&&&&&&&&&&&&&&&XXXXooOO      $$%%%%%%%%%%%%$$$$$$$$$$$$$$$$$$$$$$$$$$$$############    OOOOooXX&&&&&&&&&&&&&&&&&&&&&&&&",
"&&&&&&&&&&&&&&&&&&&&&&&&XXXXooXX      $$%%%%%%%%%%$$$$$$$$$$$$$$$$$$$$$$$$$$$$############@@    OOXXXXXX&&&&&&&&&&&&&&&&&&&&&&&&",
"&&&&&&&&&&&&&&&&&&&&&&&&XXXXooXX      $$%%%%%%%%%%$$$$$$$$$$$$$$$$$$$$$$$$$$$$############@@    OOXXXXXX&&&&&&&&&&&&&&&&&&&&&&&&",
"&&&&&&&&&&&&&&&&&&&&&&&&XXXXooOO    $$$$%%%%%%%%%%$$$$$$$$$$$$$$$$$$$$$$$$$$##############@@    ooOOXXXX&&&&&&&&&&&&&&&&&&&&&&&&",
"&&&&&&&&&&&&&&&&&&&&&&&&XXXXooOO    $$$$%%%%%%%%%%$$$$$$$$$$$$$$$$$$$$$$$$$$##############@@    ooOOXXXX&&&&&&&&&&&&&&&&&&&&&&&&",
"&&&&&&&&&&&&&&&&&&&&&&&&XXXXooOO    $$$$%%%%%%%%$$$$$$$$$$$$$$$$$$$$$$$$$$$$$$##########@@@@    XXooooXX&&&&&&&&&&&&&&&&&&&&&&&&",
"&&&&&&&&&&&&&&&&&&&&&&&&XXXXooOO    $$$$%%%%%%%%$$$$$$$$$$$$$$$$$$$$$$$$$$$$$$##########@@@@    XXooooXX&&&&&&&&&&&&&&&&&&&&&&&&",
"&&&&&&&&&&&&&&&&&&&&&&&&XXooOOXX    $$$$$$%%%%%%$$$$$$$$$$$$$$$$$$$$$$$$$$$$############@@@@    ooooXXXX&&&&&&&&&&&&&&&&&&&&&&&&",
"&&&&&&&&&&&&&&&&&&&&&&&&XXooOOXX    $$$$$$%%%%%%$$$$$$$$$$$$$$$$$$$$$$$$$$$$############@@@@    ooooXXXX&&&&&&&&&&&&&&&&&&&&&&&&",
"&&&&&&&&&&&&&&&&&&&&&&&&XXXXoooo    $$$$$$$$$$$$$$$$$$$$$$$$$$$$$$$$$$##$$##$$########@@@@@@    ooOOXXXX&&&&&&&&&&&&&&&&&&&&&&&&",
"&&&&&&&&&&&&&&&&&&&&&&&&XXXXoooo    $$$$$$$$$$$$$$$$$$$$$$$$$$$$$$$$$$##$$##$$########@@@@@@    ooOOXXXX&&&&&&&&&&&&&&&&&&&&&&&&",
"&&&&&&&&&&&&&&&&&&&&&&&&XXXXoooo    $$$$$$$$$$$$$$$$$$$$$$$$$$$$$$$$$$$$################@@++    ooOOOOXX&&&&&&&&&&&&&&&&&&&&&&&&",
"&&&&&&&&&&&&&&&&&&&&&&&&XXXXoooo    $$$$$$$$$$$$$$$$$$$$$$$$$$$$$$$$$$$$################@@++    ooOOOOXX&&&&&&&&&&&&&&&&&&&&&&&&",
"&&&&&&&&&&&&&&&&&&&&&&&&XXXXooOO    $$$$$$$$$$$$$$$$$$$$$$$$$$$$##$$##$$##############@@@@@@    ooooOOXX&&&&&&&&&&&&&&&&&&&&&&&&",
"&&&&&&&&&&&&&&&&&&&&&&&&XXXXooOO    $$$$$$$$$$$$$$$$$$$$$$$$$$$$##$$##$$##############@@@@@@    ooooOOXX&&&&&&&&&&&&&&&&&&&&&&&&",
"&&&&&&&&&&&&&&&&&&&&&&&&XXooooXX    $$$$$$$$$$$$$$$$$$$$$$$$$$$$####################@@##@@@@    ooXXXXXX&&&&&&&&&&&&&&&&&&&&&&&&",
"&&&&&&&&&&&&&&&&&&&&&&&&XXooooXX    $$$$$$$$$$$$$$$$$$$$$$$$$$$$####################@@##@@@@    ooXXXXXX&&&&&&&&&&&&&&&&&&&&&&&&",
"&&&&&&&&&&&&&&&&&&&&&&&&XXXXoooo    $$$$$$$$$$$$$$$$$$$$####$$######################@@@@@@++    OOXXOOXX&&&&&&&&&&&&&&&&&&&&&&&&",
"&&&&&&&&&&&&&&&&&&&&&&&&XXXXoooo    $$$$$$$$$$$$$$$$$$$$####$$######################@@@@@@++    OOXXOOXX&&&&&&&&&&&&&&&&&&&&&&&&",
"&&&&&&&&&&&&&&&&&&&&&&&&XXXXooOO    $$$$$$$$$$$$$$$$$$$$############################@@@@....    XXooXXXX&&&&&&&&&&&&&&&&&&&&&&&&",
"&&&&&&&&&&&&&&&&&&&&&&&&XXXXooOO    $$$$$$$$$$$$$$$$$$$$############################@@@@....    XXooXXXX&&&&&&&&&&&&&&&&&&&&&&&&",
"&&&&&&&&&&&&&&&&&&&&&&&&XXooooOO    ##$$$$$$$$$$$$##$$############################@@##@@....    XXOOXXXX&&&&&&&&&&&&&&&&&&&&&&&&",
"&&&&&&&&&&&&&&&&&&&&&&&&XXooooOO    ##$$$$$$$$$$$$##$$############################@@##@@....    XXOOXXXX&&&&&&&&&&&&&&&&&&&&&&&&",
"&&&&&&&&&&&&&&&&&&&&&&&&XXooOOOO      $$$$##################$$####################@@@@......    OOOOXXXX&&&&&&&&&&&&&&&&&&&&&&&&",
"&&&&&&&&&&&&&&&&&&&&&&&&XXooOOOO      $$$$##################$$####################@@@@......    OOOOXXXX&&&&&&&&&&&&&&&&&&&&&&&&",
"&&&&&&&&&&&&&&&&&&&&&&&&XXooOOOO      $$$$####################################@@@@@@++......    OOOOXXXX&&&&&&&&&&&&&&&&&&&&&&&&",
"&&&&&&&&&&&&&&&&&&&&&&&&XXooOOOO      $$$$####################################@@@@@@++......    OOOOXXXX&&&&&&&&&&&&&&&&&&&&&&&&",
"&&&&&&&&&&&&&&&&&&&&&&&&XXXXooOOOO    XX####################################oo@@@@@@++....    XXOOOOXXXX&&&&&&&&&&&&&&&&&&&&&&&&",
"&&&&&&&&&&&&&&&&&&&&&&&&XXXXooOOOO    XX####################################oo@@@@@@++....    XXOOOOXXXX&&&&&&&&&&&&&&&&&&&&&&&&",
"&&&&&&&&&&&&&&&&&&&&&&&&XXXXooOOOO      ######oo################oo##oo####@@oo@@....XXXX      OOXXOOXXXX&&&&&&&&&&&&&&&&&&&&&&&&",
"&&&&&&&&&&&&&&&&&&&&&&&&XXXXooOOOO      ######oo################oo##oo####@@oo@@....XXXX      OOXXOOXXXX&&&&&&&&&&&&&&&&&&&&&&&&",
"&&&&&&&&&&&&&&&&&&&&&&&&XXooooXXXXXXXX    ooXXoooooooo##oooo##oooooo####ooooooooooXXXXXX    OOOOOOOOXXXX&&&&&&&&&&&&&&&&&&&&&&&&",
"&&&&&&&&&&&&&&&&&&&&&&&&XXooooXXXXXXXX    ooXXoooooooo##oooo##oooooo####ooooooooooXXXXXX    OOOOOOOOXXXX&&&&&&&&&&&&&&&&&&&&&&&&",
"&&&&&&&&&&&&&&&&&&&&&&&&XXooOOOOOOXXoo    oo  ooXX##XXXXXX##XX##XX######++ooooooOOOO  OO  XXOOXXooOOXXXX&&&&&&&&&&&&&&&&&&&&&&&&",
"&&&&&&&&&&&&&&&&&&&&&&&&XXooOOOOOOXXoo    oo  ooXX##XXXXXX##XX##XX######++ooooooOOOO  OO  XXOOXXooOOXXXX&&&&&&&&&&&&&&&&&&&&&&&&",
"&&&&&&&&&&&&&&&&&&&&&&&&XXXXXXXXXXXXXXXXooooooooooXXXXooooXXXXXXOO++XXXXXXXX##XXOOOOOOXXXXXXOOOOOOOOXXXX&&&&&&&&&&&&&&&&&&&&&&&&",
"&&&&&&&&&&&&&&&&&&&&&&&&XXXXXXXXXXXXXXXXooooooooooXXXXooooXXXXXXOO++XXXXXXXX##XXOOOOOOXXXXXXOOOOOOOOXXXX&&&&&&&&&&&&&&&&&&&&&&&&",
"&&&&&&&&&&&&&&&&&&&&&&&&XXXXXXXXXXOOooXXooooXXooXXXXXXXXooXXXXXXOOOOOO##XXXXXXXXXXXXOOXXOOooXXXXXXOOXXXX&&&&&&&&&&&&&&&&&&&&&&&&",
"&&&&&&&&&&&&&&&&&&&&&&&&XXXXXXXXXXOOooXXooooXXooXXXXXXXXooXXXXXXOOOOOO##XXXXXXXXXXXXOOXXOOooXXXXXXOOXXXX&&&&&&&&&&&&&&&&&&&&&&&&",
"&&&&&&&&&&&&&&&&&&&&&&&&XXXXOOXXXXOOooXXOOooooXXooooooOOXXOOOOooOOOOooooXXOOXXOOXXOOooooOOooOOOOOOOOXXXX&&&&&&&&&&&&&&&&&&&&&&&&",
"&&&&&&&&&&&&&&&&&&&&&&&&XXXXOOXXXXOOooXXOOooooXXooooooOOXXOOOOooOOOOooooXXOOXXOOXXOOooooOOooOOOOOOOOXXXX&&&&&&&&&&&&&&&&&&&&&&&&",
"&&&&&&&&&&&&&&&&&&&&&&&&XXooooXXOOooXXXXooooXXXXooooOOXXOOXXooXXXXooOOXXXXXXXXooXXXXXXooooooooOOooOOXXXX&&&&&&&&&&&&&&&&&&&&&&&&",
"&&&&&&&&&&&&&&&&&&&&&&&&XXooooXXOOooXXXXooooXXXXooooOOXXOOXXooXXXXooOOXXXXXXXXooXXXXXXooooooooOOooOOXXXX&&&&&&&&&&&&&&&&&&&&&&&&",
"&&&&&&&&&&&&&&&&&&&&&&&&XXXXooXXooooooooXXXXXXXXOOXXOOXXOOooXXXXXXooXXXXXXXXXXXXXXooooooXXOOOOXXooXXXXXX&&&&&&&&&&&&&&&&&&&&&&&&",
"&&&&&&&&&&&&&&&&&&&&&&&&XXXXooXXooooooooXXXXXXXXOOXXOOXXOOooXXXXXXooXXXXXXXXXXXXXXooooooXXOOOOXXooXXXXXX&&&&&&&&&&&&&&&&&&&&&&&&",
"&&&&&&&&&&&&&&&&&&&&&&&&XXXXooXXXXXXXXXXXXooXXXXXXooXXXXXXooooooXXXXXXooXXXXXXooXXooooXXXXXXooXXXXXXXXXX&&&&&&&&&&&&&&&&&&&&&&&&",
"&&&&&&&&&&&&&&&&&&&&&&&&XXXXooXXXXXXXXXXXXooXXXXXXooXXXXXXooooooXXXXXXooXXXXXXooXXooooXXXXXXooXXXXXXXXXX&&&&&&&&&&&&&&&&&&&&&&&&",
"&&&&&&&&&&&&&&&&&&&&&&&&&&&&&&&&&&&&&&&&&&&&&&&&&&&&&&&&&&&&&&&&&&&&&&&&&&&&&&&&&&&&&&&&&&&&&&&&&&&&&&&&&&&&&&&&&&&&&&&&&&&&&&&&",
"&&&&&&&&&&&&&&&&&&&&&&&&&&&&&&&&&&&&&&&&&&&&&&&&&&&&&&&&&&&&&&&&&&&&&&&&&&&&&&&&&&&&&&&&&&&&&&&&&&&&&&&&&&&&&&&&&&&&&&&&&&&&&&&&",
"&&&&&&&&&&&&&&&&&&&&&&&&&&&&&&&&&&&&&&&&&&&&&&&&&&&&&&&&&&&&&&&&&&&&&&&&&&&&&&&&&&&&&&&&&&&&&&&&&&&&&&&&&&&&&&&&&&&&&&&&&&&&&&&&",
"&&&&&&&&&&&&&&&&&&&&&&&&&&&&&&&&&&&&&&&&&&&&&&&&&&&&&&&&&&&&&&&&&&&&&&&&&&&&&&&&&&&&&&&&&&&&&&&&&&&&&&&&&&&&&&&&&&&&&&&&&&&&&&&&",
"&&&&&&&&&&&&&&&&&&&&&&&&&&&&&&&&&&&&&&&&&&&&&&&&&&&&&&&&&&&&&&&&&&&&&&&&&&&&&&&&&&&&&&&&&&&&&&&&&&&&&&&&&&&&&&&&&&&&&&&&&&&&&&&&",
"&&&&&&&&&&&&&&&&&&&&&&&&&&&&&&&&&&&&&&&&&&&&&&&&&&&&&&&&&&&&&&&&&&&&&&&&&&&&&&&&&&&&&&&&&&&&&&&&&&&&&&&&&&&&&&&&&&&&&&&&&&&&&&&&",
"&&&&&&&&&&&&&&&&&&&&&&&&&&&&&&&&&&&&&&&&&&&&&&&&&&&&&&&&&&&&&&&&&&&&&&&&&&&&&&&&&&&&&&&&&&&&&&&&&&&&&&&&&&&&&&&&&&&&&&&&&&&&&&&&",
"&&&&&&&&&&&&&&&&&&&&&&&&&&&&&&&&&&&&&&&&&&&&&&&&&&&&&&&&&&&&&&&&&&&&&&&&&&&&&&&&&&&&&&&&&&&&&&&&&&&&&&&&&&&&&&&&&&&&&&&&&&&&&&&&",
"&&&&&&&&&&&&&&&&&&&&&&&&&&&&&&&&&&&&&&&&&&&&&&&&&&&&&&&&&&&&&&&&&&&&&&&&&&&&&&&&&&&&&&&&&&&&&&&&&&&&&&&&&&&&&&&&&&&&&&&&&&&&&&&&",
"&&&&&&&&&&&&&&&&&&&&&&&&&&&&&&&&&&&&&&&&&&&&&&&&&&&&&&&&&&&&&&&&&&&&&&&&&&&&&&&&&&&&&&&&&&&&&&&&&&&&&&&&&&&&&&&&&&&&&&&&&&&&&&&&",
"&&&&&&&&&&&&&&&&&&&&&&&&&&&&&&&&&&&&&&&&&&&&&&&&&&&&&&&&&&&&&&&&&&&&&&&&&&&&&&&&&&&&&&&&&&&&&&&&&&&&&&&&&&&&&&&&&&&&&&&&&&&&&&&&",
"&&&&&&&&&&&&&&&&&&&&&&&&&&&&&&&&&&&&&&&&&&&&&&&&&&&&&&&&&&&&&&&&&&&&&&&&&&&&&&&&&&&&&&&&&&&&&&&&&&&&&&&&&&&&&&&&&&&&&&&&&&&&&&&&",
"&&&&&&&&&&&&&&&&&&&&&&&&&&&&&&&&&&&&&&&&&&&&&&&&&&&&&&&&&&&&&&&&&&&&&&&&&&&&&&&&&&&&&&&&&&&&&&&&&&&&&&&&&&&&&&&&&&&&&&&&&&&&&&&&",
"&&&&&&&&&&&&&&&&&&&&&&&&&&&&&&&&&&&&&&&&&&&&&&&&&&&&&&&&&&&&&&&&&&&&&&&&&&&&&&&&&&&&&&&&&&&&&&&&&&&&&&&&&&&&&&&&&&&&&&&&&&&&&&&&",
"&&&&&&&&&&&&&&&&&&&&&&&&&&&&&&&&&&&&&&&&&&&&&&&&&&&&&&&&&&&&&&&&&&&&&&&&&&&&&&&&&&&&&&&&&&&&&&&&&&&&&&&&&&&&&&&&&&&&&&&&&&&&&&&&",
"&&&&&&&&&&&&&&&&&&&&&&&&&&&&&&&&&&&&&&&&&&&&&&&&&&&&&&&&&&&&&&&&&&&&&&&&&&&&&&&&&&&&&&&&&&&&&&&&&&&&&&&&&&&&&&&&&&&&&&&&&&&&&&&&",
"&&&&&&&&&&&&&&&&&&&&&&&&&&&&&&&&&&&&&&&&&&&&&&&&&&&&&&&&&&&&&&&&&&&&&&&&&&&&&&&&&&&&&&&&&&&&&&&&&&&&&&&&&&&&&&&&&&&&&&&&&&&&&&&&",
"&&&&&&&&&&&&&&&&&&&&&&&&&&&&&&&&&&&&&&&&&&&&&&&&&&&&&&&&&&&&&&&&&&&&&&&&&&&&&&&&&&&&&&&&&&&&&&&&&&&&&&&&&&&&&&&&&&&&&&&&&&&&&&&&",
"&&&&&&&&&&&&&&&&&&&&&&&&&&&&&&&&&&&&&&&&&&&&&&&&&&&&&&&&&&&&&&&&&&&&&&&&&&&&&&&&&&&&&&&&&&&&&&&&&&&&&&&&&&&&&&&&&&&&&&&&&&&&&&&&",
"&&&&&&&&&&&&&&&&&&&&&&&&&&&&&&&&&&&&&&&&&&&&&&&&&&&&&&&&&&&&&&&&&&&&&&&&&&&&&&&&&&&&&&&&&&&&&&&&&&&&&&&&&&&&&&&&&&&&&&&&&&&&&&&&",
"&&&&&&&&&&&&&&&&&&&&&&&&&&&&&&&&&&&&&&&&&&&&&&&&&&&&&&&&&&&&&&&&&&&&&&&&&&&&&&&&&&&&&&&&&&&&&&&&&&&&&&&&&&&&&&&&&&&&&&&&&&&&&&&&",
"&&&&&&&&&&&&&&&&&&&&&&&&&&&&&&&&&&&&&&&&&&&&&&&&&&&&&&&&&&&&&&&&&&&&&&&&&&&&&&&&&&&&&&&&&&&&&&&&&&&&&&&&&&&&&&&&&&&&&&&&&&&&&&&&",
"&&&&&&&&&&&&&&&&&&&&&&&&&&&&&&&&&&&&&&&&&&&&&&&&&&&&&&&&&&&&&&&&&&&&&&&&&&&&&&&&&&&&&&&&&&&&&&&&&&&&&&&&&&&&&&&&&&&&&&&&&&&&&&&&",
"&&&&&&&&&&&&&&&&&&&&&&&&&&&&&&&&&&&&&&&&&&&&&&&&&&&&&&&&&&&&&&&&&&&&&&&&&&&&&&&&&&&&&&&&&&&&&&&&&&&&&&&&&&&&&&&&&&&&&&&&&&&&&&&&"
};
