/* XPM */
static char *result[] = {
/* columns rows colors chars-per-pixel */
"128 128 12 1 ",
"  c #3D281F",
". c #492F22",
"X c #5B3726",
"o c #5F3B2B",
"O c #455F2D",
"+ c #754833",
"@ c #464949",
"# c #58535B",
"$ c #696A6A",
"% c #865036",
"& c #8F563B",
"* c None",
/* pixels */
"********************************************************************************************************************************",
"********************************************************************************************************************************",
"********************************************************************************************************************************",
"********************************************************************************************************************************",
"********************************************************************************************************************************",
"********************************************************************************************************************************",
"********************************************************************************************************************************",
"********************************************************************************************************************************",
"********************************************************************************************************************************"
"********************************************************************************************************************************",
"********************************************************************************************************************************",
"********************************************************************************************************************************",
"********************************************************************************************************************************",
"********************************************************************************************************************************",
"********************************************************************************************************************************",
"********************************************$$$$$$$$@@$$@@@@$$$$$$@@$$$$@@OOOO$$OO@@********************************************",
"********************************************$$$$$$$$@@$$@@@@$$$$$$@@$$$$@@OOOO$$OO@@********************************************",
"****************************************$$$$OO@@$$@@$$$$@@@@$$@@$$@@@@@@@@$$OOOOOO@@OO$$****************************************",
"****************************************$$$$OO@@$$@@$$$$@@@@$$@@$$@@@@@@@@$$OOOOOO@@OO$$****************************************",
"**************************************$$$$@@@@oooooooooooooooooooooooooooooooo@@$$@@OO@@****************************************",
"**************************************$$$$@@@@oooooooooooooooooooooooooooooooo@@$$@@OO@@****************************************",
"************************************$$OO@@@@OOoooooooo&&&&&&&&&&&&&&&&&&&&++oooo++$$$$OO$$**************************************",
"************************************$$OO@@@@OOoooooooo&&&&&&&&&&&&&&&&&&&&++oooo++$$$$OO$$**************************************",
"************************************$$$$$$$$oooooo&&&&&&++&&&&&&&&&&&&&&&&&&&&oooooo$$@@OO$$************************************",
"************************************$$$$$$$$oooooo&&&&&&++&&&&&&&&&&&&&&&&&&&&oooooo$$@@OO$$************************************",
"************************************$$OO@@oooooo&&&&&&&&++++++%%%%%%%%%%&&&&&&&&&&ooooOO$$@@$$**********************************",
"************************************$$OO@@oooooo&&&&&&&&++++++%%%%%%%%%%&&&&&&&&&&ooooOO$$@@$$**********************************",
"************************************OO@@@@oooooo++oo++++%%++++++++++&&oo%%%%&&&&&&&&oooo$$OOOO**********************************",
"************************************OO@@@@oooooo++oo++++%%++++++++++&&oo%%%%&&&&&&&&oooo$$OOOO**********************************",
"************************************$$oooo&&&&oo++oo&&oo++%%oo%%oo&&%%++&&%%oo&&%%&&&&++oo++OO@@********************************",
"************************************$$oooo&&&&oo++oo&&oo++%%oo%%oo&&%%++&&%%oo&&%%&&&&++oo++OO@@********************************",
"************************************OOoooo&&&&oo++oo++++++++oo%%oo&&%%++&&%%oo&&%%oo&&&&oooo$$@@********************************",
"************************************OOoooo&&&&oo++oo++++++++oo%%oo&&%%++&&%%oo&&%%oo&&&&oooo$$@@********************************",
"************************************OOoooo&&&&oo++oo++++++++oo&&oooo%%++%%++++&&%%oo&&&&oooo@@@@********************************",
"************************************OOoooo&&&&oo++oo++++++++oo&&oooo%%++%%++++&&%%oo&&&&oooo@@@@********************************",
"************************************$$oooo&&&&&&oooo++++++++oo&&&&oo++++%%++++&&%%oo&&&&oooo$$$$********************************",
"************************************$$oooo&&&&&&oooo++++++++oo&&&&oo++++%%++++&&%%oo&&&&oooo$$$$********************************",
"************************************OOoooo&&&&&&oo++%%&&++++%%oo++oo&&%%%%++oo&&%%oo++%%ooooOO$$********************************",
"************************************OOoooo&&&&&&oo++%%&&++++%%oo++oo&&%%%%++oo&&%%oo++%%ooooOO$$********************************",
"************************************@@oooo&&&&&&++++%%++%%++%%oo++++&&%%%%&&oo&&%%oo++&&oooo@@OO********************************",
"************************************@@oooo&&&&&&++++%%++%%++%%oo++++&&%%%%&&oo&&%%oo++&&oooo@@OO********************************",
"************************************$$oooo&&&&####%%%%++%%++++oo++++++%%%%++oo&&oooo++&&ooooOO$$********************************",
"************************************$$oooo&&&&####%%%%++%%++++oo++++++%%%%++oo&&oooo++&&ooooOO$$********************************",
"************************************$$oo####################&&oo%%oo&&&&%%++oo&&++%%++++%%oo$$OO********************************",
"************************************$$oo####################&&oo%%oo&&&&%%++oo&&++%%++++%%oo$$OO********************************",
"************************************$$oo##&&&&&&##&&%%####&&&&++%%oo&&%%oo++oo&&%%++++++++ooOO@@********************************",
"************************************$$oo##&&&&&&##&&%%####&&&&++%%oo&&%%oo++oo&&%%++++++++ooOO@@********************************",
"************************************@@oooo&&&&%%++&&%%&&&&oo&&++&&++++&&oo++&&&&%%++++%%++oo$$$$********************************",
"************************************@@oooo&&&&%%++&&%%&&&&oo&&++&&++++&&oo++&&&&%%++++%%++oo$$$$********************************",
"************************************@@oooo&&&&%%++&&oo&&%%oo&&++&&++++&&oo&&++%%%%&&oo%%++ooOOOO********************************",
"************************************@@oooo&&&&%%++&&oo&&%%oo&&++&&++++&&oo&&++%%%%&&oo%%++ooOOOO********************************",
"************************************@@oooo&&++&&++oooo&&&&++oo++&&++oo&&%%&&++%%%%&&oo%%++oo$$$$********************************",
"************************************@@oooo&&++&&++oooo&&&&++oo++&&++oo&&%%&&++%%%%&&oo%%++oo$$$$********************************",
"************************************OOoooo&&++&&++++oo&&&&++&&++%%++oooo%%&&++&&&&&&oo%%++oo$$@@********************************",
"************************************OOoooo&&++&&++++oo&&&&++&&++%%++oooo%%&&++&&&&&&oo%%++oo$$@@********************************",
"************************************$$oooo&&&&%%++++oo&&++++&&%%oo++&&&&%%%%++&&##&&&&%%++oo$$@@********************************",
"************************************$$oooo&&&&%%++++oo&&++++&&%%oo++&&&&%%%%++&&##&&&&%%++oo$$@@********************************",
"************************************OOoooo++oo%%++++oo++++%%&&oo++oo%%%%++++%%##&&&&##&&++oo@@$$********************************",
"************************************OOoooo++oo%%++++oo++++%%&&oo++oo%%%%++++%%##&&&&##&&++oo@@$$********************************",
"************************************@@oooo++++++++oooo%%++%%%%oo++oooo&&oo++%%########&&++oo@@@@********************************",
"************************************@@oooo++++++++oooo%%++%%%%oo++oooo&&oo++%%########&&++oo@@@@********************************",
"************************************@@oooo&&++++++++oo%%++%%%%++++oooooooo++++&&####&&&&++oo$$OO********************************",
"************************************@@oooo&&++++++++oo%%++%%%%++++oooooooo++++&&####&&&&++oo$$OO********************************",
"************************************OOoooo&&&&++++++++++&&%%%%++%%oooooo++++++&&&&++&&++++oo$$OO********************************",
"************************************OOoooo&&&&++++++++++&&%%%%++%%oooooo++++++&&&&++&&++++oo$$OO********************************",
"************************************@@oooo&&&&&&&&&&&&&&&&%%oo++&&%%%%oo++++++++%%++++++++oo@@OO********************************",
"************************************@@oooo&&&&&&&&&&&&&&&&%%oo++&&%%%%oo++++++++%%++++++++oo@@OO********************************",
"************************************OOoooo&&&&&&&&####&&&&++oooo&&%%++oo++oo&&++%%++++&&%%oo@@$$********************************",
"************************************OOoooo&&&&&&&&####&&&&++oooo&&%%++oo++oo&&++%%++++&&%%oo@@$$********************************",
"************************************@@oooo##############++++++oo&&%%oooo++oo++++%%%%++++%%ooOO$$********************************",
"************************************@@oooo##############++++++oo&&%%oooo++oo++++%%%%++++%%ooOO$$********************************",
"************************************@@oooo&&&&&&&&++&&&&&&++%%++++%%oo++++oo++++++oo%%++%%oo$$@@********************************",
"************************************@@oooo&&&&&&&&++&&&&&&++%%++++%%oo++++oo++++++oo%%++%%oo$$@@********************************",
"************************************$$oooo&&%%&&&&++oo&&%%++oo++++oo&&++oo++++++++oo%%++++oo$$$$********************************",
"************************************$$oooo&&%%&&&&++oo&&%%++oo++++oo&&++oo++++++++oo%%++++oo$$$$********************************",
"************************************OOoooo&&%%%%++oo&&%%oooooo++++%%%%++oo++++++++oo++++++oo@@OO********************************",
"************************************OOoooo&&%%%%++oo&&%%oooooo++++%%%%++oo++++++++oo++++++oo@@OO********************************",
"************************************@@oooo&&++++&&&&++oo++&&oo++++%%%%++++++++++++oo++%%++oo@@@@********************************",
"************************************@@oooo&&++++&&&&++oo++&&oo++++%%%%++++++++++++oo++%%++oo@@@@********************************",
"************************************@@oooo&&++++oo&&++oooo&&oo++%%%%&&%%oo++%%%%++oo++oo++oo$$@@********************************",
"************************************@@oooo&&++++oo&&++oooo&&oo++%%%%&&%%oo++%%%%++oo++oo++oo$$@@********************************",
"************************************OOoooo&&++++oooo++oooo&&oooo%%%%&&++oo++%%&&%%oo++++++oo@@@@********************************",
"************************************OOoooo&&++++oooo++oooo&&oooo%%%%&&++oo++%%&&%%oo++++++oo@@@@********************************",
"************************************OOoooo&&++++++++++++++++oooo%%++++++%%++++&&%%oooo++++ooOO@@********************************",
"************************************OOoooo&&++++++++++++++++oooo%%++++++%%++++&&%%oooo++++ooOO@@********************************",
"************************************@@oooo&&&&++++OO++&&oooooo++++++&&%%%%++++++++oooo++++oo$$OO********************************",
"************************************@@oooo&&&&++++OO++&&oooooo++++++&&%%%%++++++++oooo++++oo$$OO********************************",
"************************************@@oooo&&OO++XXXXXXOO&&&&OO&&OOOOOO%%&&&&XXooooooXX&&&&oo$$@@********************************",
"************************************@@oooo&&OO++XXXXXXOO&&&&OO&&OOOOOO%%&&&&XXooooooXX&&&&oo$$@@********************************",
"************************************....    ..                XX..XXXXXXXXXXXXXX++++XXXXXXooOO@@********************************",
"************************************....    ..                XX..XXXXXXXXXXXXXX++++XXXXXXooOO@@********************************",
"************************************..    ....    XXXXXX........XX    XXXX......  ..XX..    ************************************",
"************************************..    ....    XXXXXX........XX    XXXX......  ..XX..    ************************************",
"**********************************..  ..  XXXX  ....XXXX          XXXXXX..XXXXXXXX..XX      ************************************",
"**********************************..  ..  XXXX  ....XXXX          XXXXXX..XXXXXXXX..XX      ************************************",
"**********************************..            ........  ....    XXXX          XX  XX    **************************************",
"**********************************..            ........  ....    XXXX          XX  XX    **************************************",
"********************************************************************************************************************************",
"********************************************************************************************************************************",
"********************************************************************************************************************************",
"********************************************************************************************************************************",
"********************************************************************************************************************************",
"********************************************************************************************************************************",
"********************************************************************************************************************************",
"********************************************************************************************************************************",
"********************************************************************************************************************************",
"********************************************************************************************************************************",
"********************************************************************************************************************************",
"********************************************************************************************************************************",
"********************************************************************************************************************************",
"********************************************************************************************************************************",
"********************************************************************************************************************************",
"********************************************************************************************************************************",
"********************************************************************************************************************************",
"********************************************************************************************************************************",
"********************************************************************************************************************************",
"********************************************************************************************************************************",
"********************************************************************************************************************************",
"********************************************************************************************************************************",
"********************************************************************************************************************************",
"********************************************************************************************************************************",
"********************************************************************************************************************************",
"********************************************************************************************************************************",
"********************************************************************************************************************************",
"********************************************************************************************************************************",
"********************************************************************************************************************************",
"********************************************************************************************************************************",
"********************************************************************************************************************************",
};
