/* XPM */
static char *result[] = {
/* columns rows colors chars-per-pixel */
"128 128 14 1 ",
"  c black",
". c #3D281F",
"X c #492F22",
"o c #5B3726",
"O c #5F3B2B",
"+ c #455F2D",
"@ c #754833",
"# c #464949",
"$ c #58535B",
"% c #696A6A",
"& c #865036",
"* c #8F563B",
"= c #79AD41",
"- c None",
/* pixels */
"--------------------------------------------------------------------------------------------------------------------------------",
"--------------------------------------------------------------------------------------------------------------------------------",
"--------------------------------------------------------------------------------------------------------------------------------",
"--------------------------------------------------------------------------------------------------------------------------------",
"--------------------------------------------------------------------------------------------------------------------------------",
"--------------------------------------------------------------------------------------------------------------------------------",
"--------------------------------------------------------------------------------------------------------------------------------",
"--------------------------------------------------------------------------------------------------------------------------------",
"--------------------------------------------------------------------------------------------------------------------------------",
"--------------------------------------------------------------------------------------------------------------------------------",
"--------------------------------------------------------------------------------------------------------------------------------"
"--------------------------------------------------------------------------------------------------------------------------------",
"--------------------------------------------------------------------------------------------------------------------------------",
"--------------------------------------------------------------------------------------------------------------------------------",
"--------------------------------------------------------------------------------------------------------------------------------",
"--------------------------------------------------------------------------------------------------------------------------------",
"--------------------------------------------------------------------------------------------------------------------------------",
"----------------------------------------------%%%%%%##%%####%%%%%%%%%%####++++%%++##--------------------------------------------",
"----------------------------------------------%%%%%%##%%####%%%%%%%%%%####++++%%++##--------------------------------------------",
"------------------------------------------%%%%++####%%%%####%%##%%####%%##%%++++++##%%------------------------------------------",
"------------------------------------------%%%%++####%%%%####%%##%%####%%##%%++++++##%%------------------------------------------",
"----------------------------------------%%%%####                              ##%%####------------------------------------------",
"----------------------------------------%%%%####                              ##%%####------------------------------------------",
"--------------------------------------%%%%%%%%    OOOOOOOOOOOOOOOO                  ##++%%--------------------------------------",
"--------------------------------------%%%%%%%%    OOOOOOOOOOOOOOOO                  ##++%%--------------------------------------",
"--------------------------------------%%++##    OOOOOO**@@@@@@OOOOOO                ++%%##%%++----------------------------------",
"--------------------------------------%%++##    OOOOOO**@@@@@@OOOOOO                ++%%##%%++----------------------------------",
"------------------------------------++++####OOOOOO******&&@@@@@@@@OOOO                %%++++%%++--------------------------------",
"------------------------------------++++####OOOOOO******&&@@@@@@@@OOOO                %%++++%%++--------------------------------",
"------------------------------------%%++##OOOO**********@@**OO@@****OO                  ++++%%%%--------------------------------",
"------------------------------------%%++##OOOO**********@@**OO@@****OO                  ++++%%%%--------------------------------",
"------------------------------------%%%%OOOO@@****OO****@@**OO@@****OO                  ######%%--------------------------------",
"------------------------------------%%%%OOOO@@****OO****@@**OO@@****OO                  ######%%--------------------------------",
"------------------------------------%%++OOOO****OOOO@@@@@@@@OO&&OO**OO                    %%%%++--------------------------------",
"------------------------------------%%++OOOO****OOOO@@@@@@@@OO&&OO**OO                    %%%%++--------------------------------",
"------------------------------------%%++OOOO****OOOO@@@@@@@@OO**OO**OOOO                  ####%%--------------------------------",
"------------------------------------%%++OOOO****OOOO@@@@@@@@OO**OO**OOOO                  ####%%--------------------------------",
"------------------------------------##%%OOOO******OO@@@@@@@@OO******OOOO                  %%++++--------------------------------",
"------------------------------------##%%OOOO******OO@@@@@@@@OO******OOOO                  %%++++--------------------------------",
"------------------------------------++++OOOO******@@&&**@@@@&&OO@@**OOOO                  ++%%##--------------------------------",
"------------------------------------++++OOOO******@@&&**@@@@&&OO@@**OOOO                  ++%%##--------------------------------",
"------------------------------------%%##OOOO******@@&&@@&&@@&&OO@@****OO                  ####%%--------------------------------",
"------------------------------------%%##OOOO******@@&&@@&&@@&&OO@@****OO                  ####%%--------------------------------",
"------------------------------------##++OO$$$$$$$$$$$$&&@@@@**OOOO****OO                  %%##%%--------------------------------",
"------------------------------------##++OO$$$$$$$$$$$$&&@@@@**OOOO****OO                  %%##%%--------------------------------",
"------------------------------------%%%%OO$$$$$$$$$$$$$$$$$$**OO&&****OO                  ##%%##--------------------------------",
"------------------------------------%%%%OO$$$$$$$$$$$$$$$$$$**OO&&****OO                  ##%%##--------------------------------",
"------------------------------------%%%%OOOO********&&$$$$****@@&&@@**OO                  ++####--------------------------------",
"------------------------------------%%%%OOOO********&&$$$$****@@&&@@**OO                  ++####--------------------------------",
"------------------------------------####OOOO****&&**&&****OO**@@******@@                  %%++##--------------------------------",
"------------------------------------####OOOO****&&**&&****OO**@@******@@                  %%++##--------------------------------",
"------------------------------------++##OOOO****&&**OO**&&OO**@@**@@@@@@                  %%++##--------------------------------",
"------------------------------------++##OOOO****&&**OO**&&OO**@@**@@@@@@                  %%++##--------------------------------",
"------------------------------------%%++OOOO**@@**@@OO****@@**@@&&@@**@@                  ++++%%--------------------------------",
"------------------------------------%%++OOOO**@@**@@OO****@@**@@&&@@**@@                  ++++%%--------------------------------",
"------------------------------------%%%%OOOO****&&@@OO**@@@@**&&OO****OO                  ##++##--------------------------------",
"------------------------------------%%%%OOOO****&&@@OO**@@@@**&&OO****OO                  ##++##--------------------------------",
"------------------------------------####OOOO****&&@@OO@@@@&&**&&$$$$$$OO                  ++##++--------------------------------",
"------------------------------------####OOOO****&&@@OO@@@@&&**&&$$$$$$OO                  ++##++--------------------------------",
"------------------------------------##++OOOO@@OO&&@@OO@@@@&&**OO@@$$**OO                  ++++##--------------------------------",
"------------------------------------##++OOOO@@OO&&@@OO@@@@&&**OO@@$$**OO                  ++++##--------------------------------",
"------------------------------------####OOOO@@@@@@OOOO&&@@&&&&OO@@@@$$OO                  ####++--------------------------------",
"------------------------------------####OOOO@@@@@@OOOO&&@@&&&&OO@@@@$$OO                  ####++--------------------------------",
"------------------------------------%%##OOOO**@@@@@@OO&&@@&&&&@@@@$$$$OO                  ####++--------------------------------",
"------------------------------------%%##OOOO**@@@@@@OO&&@@&&&&@@@@$$$$OO                  ####++--------------------------------",
"------------------------------------####OOOO**************&&OO@@**@@@@OO                  ##++++--------------------------------",
"------------------------------------####OOOO**************&&OO@@**@@@@OO                  ##++++--------------------------------",
"------------------------------------++++OOOO******$$$$****@@OOOO****@@OO                  %%%%##--------------------------------",
"------------------------------------++++OOOO******$$$$****@@OOOO****@@OO                  %%%%##--------------------------------",
"------------------------------------++##OO$$$$$$$$$$$$$$@@@@@@OO****@@OO                  ++++%%--------------------------------",
"------------------------------------++##OO$$$$$$$$$$$$$$@@@@@@OO****@@OO                  ++++%%--------------------------------",
"------------------------------------%%%%OO$$$$$$$$$$$$$$@@@@**OO**@@**OO                  ++++%%--------------------------------",
"------------------------------------%%%%OO$$$$$$$$$$$$$$@@@@**OO**@@**OO                  ++++%%--------------------------------",
"------------------------------------++%%OOOO********$$**@@@@**OO******OO                  %%++##--------------------------------",
"------------------------------------++%%OOOO********$$**@@@@**OO******OO                  %%++##--------------------------------",
"------------------------------------##%%OOOO**&&**@@OO**&&@@OO@@@@@@**OO                  %%##++--------------------------------",
"------------------------------------##%%OOOO**&&**@@OO**&&@@OO@@@@@@**OO                  %%##++--------------------------------",
"------------------------------------##++OOOO**&&&&OO**&&OOOOOO@@@@@@**OO                  ##%%##--------------------------------",
"------------------------------------##++OOOO**&&&&OO**&&OOOOOO@@@@@@**OO                  ##%%##--------------------------------",
"------------------------------------%%##OOOO**@@@@**@@OO@@**OO@@@@@@@@OO                  ######--------------------------------",
"------------------------------------%%##OOOO**@@@@**@@OO@@**OO@@@@@@@@OO                  ######--------------------------------",
"------------------------------------####OOOO**@@@@**@@OOOO**OO**&&**@@OO                  %%%%++--------------------------------",
"------------------------------------####OOOO**@@@@**@@OOOO**OO**&&**@@OO                  %%%%++--------------------------------",
"------------------------------------%%++OOOO**@@@@OO@@OOOO**OO**&&@@OOOO                  ##++++--------------------------------",
"------------------------------------%%++OOOO**@@@@OO@@OOOO**OO**&&@@OOOO                  ##++++--------------------------------",
"------------------------------------####OOOO****@@++@@****OOOOOOOO++++                    %%####--------------------------------",
"------------------------------------####OOOO****@@++@@****OOOOOOOO++++                    %%####--------------------------------",
"------------------------------------####OOOO****OOOOOOOOOOOOOO++  ++            ++        ++%%##--------------------------------",
"------------------------------------####OOOO****OOOOOOOOOOOOOO++  ++            ++        ++%%##--------------------------------",
"------------------------------------%%##OOOOOO              ++  ++++        ++++  ++++    %%##%%--------------------------------",
"------------------------------------%%##OOOOOO              ++  ++++        ++++  ++++    %%##%%--------------------------------",
"--------------------------------------XXXX....XX..XX..........ooXXoooooooooooooo@@@@oooo  ++%%%%--------------------------------",
"--------------------------------------XXXX....XX..XX..........ooXXoooooooooooooo@@@@oooo  ++%%%%--------------------------------",
"------------------------------------XXXX....XXXX..ooooooXXXXXXXXoo..ooooooXXXXXX..XXXX....==------------------------------------",
"------------------------------------XXXX....XXXX..ooooooXXXXXXXXoo..ooooooXXXXXX..XXXX....==------------------------------------",
"----------------------------------XXXX............XXXXXX..XXXX....oo............oo......----------------------------------------",
"----------------------------------XXXX............XXXXXX..XXXX....oo............oo......----------------------------------------",
"--------------------------------------------------------------------------------------------------------------------------------",
"--------------------------------------------------------------------------------------------------------------------------------",
"--------------------------------------------------------------------------------------------------------------------------------",
"--------------------------------------------------------------------------------------------------------------------------------",
"--------------------------------------------------------------------------------------------------------------------------------",
"--------------------------------------------------------------------------------------------------------------------------------",
"--------------------------------------------------------------------------------------------------------------------------------",
"--------------------------------------------------------------------------------------------------------------------------------",
"--------------------------------------------------------------------------------------------------------------------------------",
"--------------------------------------------------------------------------------------------------------------------------------",
"--------------------------------------------------------------------------------------------------------------------------------",
"--------------------------------------------------------------------------------------------------------------------------------",
"--------------------------------------------------------------------------------------------------------------------------------",
"--------------------------------------------------------------------------------------------------------------------------------",
"--------------------------------------------------------------------------------------------------------------------------------",
"--------------------------------------------------------------------------------------------------------------------------------",
"--------------------------------------------------------------------------------------------------------------------------------",
"--------------------------------------------------------------------------------------------------------------------------------",
"--------------------------------------------------------------------------------------------------------------------------------",
"--------------------------------------------------------------------------------------------------------------------------------",
"--------------------------------------------------------------------------------------------------------------------------------",
"--------------------------------------------------------------------------------------------------------------------------------",
"--------------------------------------------------------------------------------------------------------------------------------",
"--------------------------------------------------------------------------------------------------------------------------------",
"--------------------------------------------------------------------------------------------------------------------------------",
"--------------------------------------------------------------------------------------------------------------------------------",
"--------------------------------------------------------------------------------------------------------------------------------",
"--------------------------------------------------------------------------------------------------------------------------------",
"--------------------------------------------------------------------------------------------------------------------------------",
"--------------------------------------------------------------------------------------------------------------------------------",
"--------------------------------------------------------------------------------------------------------------------------------",
};
