/* XPM */
static char *a8f4f0cd0d8f4683d40e94002ddde4cbUS8GNMUFS9Q937cf[] = {
/* columns rows colors chars-per-pixel */
"128 128 4 1 ",
"  c None",
". c black",
"X c #FBF236",
"o c white",
/* pixels */
"                                                                                                                                ",
"                                                                                                                                ",
"                                                                                                                                ",
"                                                                                                                                ",
"                                                                                                                                ",
"                                                                                                                                ",
"                                                                                                                                ",
"                                                                                                                                ",
"                                                                                                                                ",
"                                                                                                                                ",
"                                                                                                                                ",
"                                                                                                                                ",
"                                                                                                                                ",
"                                                                                                                                ",
"                                                                                                                                ",
"                                                                                                                                ",
"                                                                                                                                ",
"                                                                                                                                ",
"                                                                                                                                ",
"                                                                                                                                ",
"                                                                                                                                ",
"                                                                                                                                ",
"                                                                                                                                ",
"                                                                                                                                ",
"                                                                                                                                ",
"                                                                                                                                ",
"                                                                                                                                ",
"                                                                                                                                ",
"                                                                                                                                ",
"                                                                                                                                ",
"                                                                                                                                ",
"                                                                                                                                ",
"                                                                                                                                ",
"                                                                                                                                ",
"                                                                                                                                ",
"                                                                                                                                ",
"                                                                                                                                ",
"                                                                                                                                ",
"                                                                                                                                ",
"                                                                                                                                ",
"                                                                                                                                ",
"                                                                                                                                ",
"                                                            ......                                                              ",
"                                                            ......                                                              ",
"                                                          ..XXXX....                                                            ",
"                                                          ..XXXX....                                                            ",
"                                                        ....XXXXXX..                                                            ",
"                                                        ....XXXXXX..                                                            ",
"                                                      ....XXXXXXXXXX..                                                          ",
"                                                      ....XXXXXXXXXX..                                                          ",
"                                                      ..XXXXXXXXXXXX..                                                          ",
"                                                      ..XXXXXXXXXXXX..                                                          ",
"                                                    ..XXXXXXXXXXXXXXXX..                                                        ",
"                                                    ..XXXXXXXXXXXXXXXX..                                                        ",
"                                    ..................XXXXXXXXXXXXXXXX................                                          ",
"                                    ..................XXXXXXXXXXXXXXXX................                                          ",
"                                    ..XXXXXXXXXXXXXXXXXXXXXXXXXXXXXXXXXXXXXXXXXXXXXX..                                          ",
"                                    ..XXXXXXXXXXXXXXXXXXXXXXXXXXXXXXXXXXXXXXXXXXXXXX..                                          ",
"                                      ..XXXXXXXXXXXXXXoo....XXoo....XXXXXXXXXXXXXX....                                          ",
"                                      ..XXXXXXXXXXXXXXoo....XXoo....XXXXXXXXXXXXXX....                                          ",
"                                      ......XXXXXXXXXX......XX......XXXXXXXXXXXX....                                            ",
"                                      ......XXXXXXXXXX......XX......XXXXXXXXXXXX....                                            ",
"                                          ....XXXXXXXX......XX......XXXXXXXXXX....                                              ",
"                                          ....XXXXXXXX......XX......XXXXXXXXXX....                                              ",
"                                              ....XXXX......XX......XXXXXX....                                                  ",
"                                              ....XXXX......XX......XXXXXX....                                                  ",
"                                              ....XXXX......XX......XXXXXX..                                                    ",
"                                              ....XXXX......XX......XXXXXX..                                                    ",
"                                                ..XXXX......XX......XXXX....                                                    ",
"                                                ..XXXX......XX......XXXX....                                                    ",
"                                              ..XXXXXXXXXXXXXXXXXXXXXXXXXXXX..                                                  ",
"                                              ..XXXXXXXXXXXXXXXXXXXXXXXXXXXX..                                                  ",
"                                            ....XXXXXXXXXXXXXXXXXXXXXXXXXXXX..                                                  ",
"                                            ....XXXXXXXXXXXXXXXXXXXXXXXXXXXX..                                                  ",
"                                            ..XXXXXXXXXXXXXX......XXXXXXXXXXXX..                                                ",
"                                            ..XXXXXXXXXXXXXX......XXXXXXXXXXXX..                                                ",
"                                            ..XXXXXXXXXX......  ....XXXXXXXXXX..                                                ",
"                                            ..XXXXXXXXXX......  ....XXXXXXXXXX..                                                ",
"                                          ....XXXXXXXX....        ....XXXXXXXXXX..                                              ",
"                                          ....XXXXXXXX....        ....XXXXXXXXXX..                                              ",
"                                          ..............            ....XXXXXXXX..                                              ",
"                                          ..............            ....XXXXXXXX..                                              ",
"                                          ............                ............                                              ",
"                                          ............                ............                                              ",
"                                                                                                                                ",
"                                                                                                                                ",
"                                                                                                                                ",
"                                                                                                                                ",
"                                                                                                                                ",
"                                                                                                                                ",
"                                                                                                                                ",
"                                                                                                                                ",
"                                                                                                                                ",
"                                                                                                                                ",
"                                                                                                                                ",
"                                                                                                                                ",
"                                                                                                                                ",
"                                                                                                                                ",
"                                                                                                                                ",
"                                                                                                                                ",
"                                                                                                                                ",
"                                                                                                                                ",
"                                                                                                                                ",
"                                                                                                                                ",
"                                                                                                                                ",
"                                                                                                                                ",
"                                                                                                                                ",
"                                                                                                                                ",
"                                                                                                                                ",
"                                                                                                                                ",
"                                                                                                                                ",
"                                                                                                                                ",
"                                                                                                                                ",
"                                                                                                                                ",
"                                                                                                                                ",
"                                                                                                                                ",
"                                                                                                                                ",
"                                                                                                                                ",
"                                                                                                                                ",
"                                                                                                                                ",
"                                                                                                                                ",
"                                                                                                                                ",
"                                                                                                                                ",
"                                                                                                                                ",
"                                                                                                                                ",
"                                                                                                                                ",
"                                                                                                                                ",
"                                                                                                                                "
};
