/* XPM */
static char *result[] = {
/* columns rows colors chars-per-pixel */
"128 128 8 1 ",
"  c black",
". c #AC3232",
"X c #FBB836",
"o c #D796BA",
"O c #CBC5C5",
"+ c #D8D2D2",
"@ c white",
"# c None",
/* pixels */
"################################################################################################################################",
"################################################################################################################################",
"################################################################################################################################",
"################################################################################################################################",
"################################################################################################################################",
"################################################################################################################################",
"################################################################################################################################",
"################################################################################################################################",
"################################################################################################################################",
"################################################################################################################################",
"################################################################################################################################",
"################################################################################################################################",
"################################################################################################################################",
"################################################################################################################################",
"################################################################################################################################",
"################################################################################################################################",
"################################################################################################################################",
"################################################################################################################################",
"################################################################################################################################",
"################################################################################################################################",
"################################################################################################################################",
"################################################################################################################################",
"################################################################################################################################",
"################################################################################################################################",
"################################################################################################################################",
"################################################################################################################################",
"################################################################################################################################",
"################################################################################################################################",
"######################################################################################################  ####  ##################",
"######################################################################################################  ####  ##################",
"####################################################################################################      ##    ################",
"####################################################################################################      ##    ################",
"####################################################################################################  @@  ##  @@  ##############",
"####################################################################################################  @@  ##  @@  ##############",
"####################################################################################################  @@@@    @@@@  ############",
"####################################################################################################  @@@@    @@@@  ############",
"##################################################################################################    @@@@@@@@@@@@@@  ##########",
"##################################################################################################    @@@@@@@@@@@@@@  ##########",
"################################################################################################    @@@@@@@@  @@  @@  ##########",
"################################################################################################    @@@@@@@@  @@  @@  ##########",
"################################################################################################  @@@@@@@@@@  @@  @@  ##########",
"################################################################################################  @@@@@@@@@@  @@  @@  ##########",
"##############################################################################################  @@@@@@@@@@@@@@@@@@@@  ##########",
"##############################################################################################  @@@@@@@@@@@@@@@@@@@@  ##########",
"############################################################################################  @@@@@@@@@@@@@@@@@@@@@@  ##########",
"############################################################################################  @@@@@@@@@@@@@@@@@@@@@@  ##########",
"##########################################################################################  @@@@@@@@@@@@@@@@@@@@@@    ##########",
"##########################################################################################  @@@@@@@@@@@@@@@@@@@@@@    ##########",
"########################################################################################  @@@@@@@@@@@@              ############",
"########################################################################################  @@@@@@@@@@@@              ############",
"########################################################################################  @@@@@@@@        ######################",
"########################################################################################  @@@@@@@@        ######################",
"######################################################################################  @@@@        ############################",
"######################################################################################  @@@@        ############################",
"######################################################################################        ##################################",
"######################################################################################        ##################################",
"################################################################################################################################",
"################################################################################################################################",
"################################################################################################################################",
"################################################################################################################################",
"################################################################################################################################",
"################################################################################################################################",
"################################################################################    ############################################",
"################################################################################    ############################################",
"##############################################################################    ++    ####      ##############################",
"##############################################################################    ++    ####      ##############################",
"############################################################################      ++++        ++++  ############################",
"############################################################################      ++++        ++++  ############################",
"################################################                                ++++++++++++++++++++  ##########################",
"################################################                                ++++++++++++++++++++  ##########################",
"##############################################    OOOOOO++OOOO++OOOOOOOO....    ++++++++++++++++++++    ########################",
"##############################################    OOOOOO++OOOO++OOOOOOOO....    ++++++++++++++++++++    ########################",
"############################################    OO++++++++OOOO++++OOOOOO....  ++++++++++++++++++++++++  ########################",
"############################################    OO++++++++OOOO++++OOOOOO....  ++++++++++++++++++++++++  ########################",
"##########################################    OO++++++++++++OO++++++OOOO++..  ++++++    ++++++    ++++  ########################",
"##########################################    OO++++++++++++OO++++++OOOO++..  ++++++    ++++++    ++++  ########################",
"##########################################    OO++++OOOOOO++++++++++++++++..  ++++++++++++oo++++++++++  ########################",
"##########################################    OO++++OOOOOO++++++++++++++++..  ++++++++++++oo++++++++++  ########################",
"########################################    ++++++OOOOOOOO++++++++++++++++..  OOOO++++++++++++++++++    ########################",
"########################################    ++++++OOOOOOOO++++++++++++++++..  OOOO++++++++++++++++++    ########################",
"######################################    ++++++++++++++OOOOOO++++++++++++++..  OO++++++++++++++++++  ##########################",
"######################################    ++++++++++++++OOOOOO++++++++++++++..  OO++++++++++++++++++  ##########################",
"##################################      OO    ++++++++++++OOOO++++++++++++++++..  ++OOOOOOOOOOOO++    ##########################",
"##################################      OO    ++++++++++++OOOO++++++++++++++++..  ++OOOOOOOOOOOO++    ##########################",
"##############################    ++++++++      ++++++++++++OOOO++++++++++++++++..      ++++      ##############################",
"##############################    ++++++++      ++++++++++++OOOO++++++++++++++++..      ++++      ##############################",
"############################  @@@@++      ####    ++++++++++++OOOO++++++++  ++++++OO..        ..  ##############################",
"############################  @@@@++      ####    ++++++++++++OOOO++++++++  ++++++OO..        ..  ##############################",
"##############################      ############                                        XXXXXX  ################################",
"##############################      ############                                        XXXXXX  ################################",
"################################################################################################################################",
"################################################################################################################################",
"################################################################################################################################",
"################################################################################################################################",
"################################################################################################################################",
"################################################################################################################################",
"################################################################################################################################",
"################################################################################################################################",
"################################################################################################################################",
"################################################################################################################################",
"################################################################################################################################",
"################################################################################################################################",
"################################################################################################################################",
"################################################################################################################################",
"################################################################################################################################",
"################################################################################################################################",
"################################################################################################################################",
"################################################################################################################################",
"################################################################################################################################",
"################################################################################################################################",
"################################################################################################################################",
"################################################################################################################################",
"################################################################################################################################",
"################################################################################################################################",
"################################################################################################################################",
"################################################################################################################################",
"################################################################################################################################",
"################################################################################################################################",
"################################################################################################################################",
"################################################################################################################################",
"################################################################################################################################",
"################################################################################################################################",
"################################################################################################################################",
"################################################################################################################################",
"################################################################################################################################",
"################################################################################################################################",
"################################################################################################################################",
"################################################################################################################################"
};
